<svg xmlns="http://www.w3.org/2000/svg" xmlns:svg="http://www.w3.org/2000/svg" xmlns:xlink="http://www.w3.org/1999/xlink" style="fill:none;stroke-width:7.5px;stroke-linecap:round;stroke-linejoin:round;overflow:hidden" id="svg2" width="174.307" height="71.833" version="1.1" viewBox="-57 -57 348.613 143.667"><metadata id="metadata27"/><style id="style4" type="text/css">*{fill:none;stroke-width:7.5px;stroke-linecap:round;stroke-linejoin:round}.X{stroke-width:13px;stroke:#505052}.wiki{stroke-width:3px;stroke:#f70}.west{stroke:#0087cb}.north{stroke:#70b700}.east{stroke:#f70}.south{stroke:red}</style><defs id="defs6"><g id="dash" transform="translate(20,-20)" style="fill:none;stroke-width:7.5px;stroke-linecap:round;stroke-linejoin:round"><path id="path9" d="M 3,-3 14,-14" style="fill:none;stroke-width:7.5px;stroke-linecap:round;stroke-linejoin:round"/></g></defs><use id="use11" width="324" height="114" x="0" y="0" class="north" transform="matrix(0.70710678,-0.70710678,0.70710678,0.70710678,14.83326,14.833261)" xlink:href="#dash" style="fill:none;stroke:#70b700;stroke-width:7.5px;stroke-linecap:round;stroke-linejoin:round"/><use id="use13" width="324" height="114" x="0" y="0" class="east" transform="matrix(0.70710678,0.70710678,-0.70710678,0.70710678,14.83326,14.833261)" xlink:href="#dash" style="fill:none;stroke:#f70;stroke-width:7.5px;stroke-linecap:round;stroke-linejoin:round"/><use id="use15" width="324" height="114" x="0" y="0" class="south" transform="matrix(-0.70710678,0.70710678,-0.70710678,-0.70710678,14.83326,14.833261)" xlink:href="#dash" style="fill:none;stroke:red;stroke-width:7.5px;stroke-linecap:round;stroke-linejoin:round"/><use id="use17" width="324" height="114" x="0" y="0" class="west" transform="matrix(-0.70710678,-0.70710678,0.70710678,-0.70710678,14.83326,14.833261)" xlink:href="#dash" style="fill:none;stroke:#0087cb;stroke-width:7.5px;stroke-linecap:round;stroke-linejoin:round"/><line id="line19" x1="-20.167" x2="49.833" y1="-25.167" y2="54.833" class="X" style="fill:none;stroke:#505052;stroke-width:13px;stroke-linecap:round;stroke-linejoin:round"/><line id="line21" x1="-20.167" x2="49.833" y1="54.833" y2="-25.167" class="X" style="fill:none;stroke:#505052;stroke-width:13px;stroke-linecap:round;stroke-linejoin:round"/><path id="path23" d="m 73.83326,-26.666738 15.95,82.939999 28.71,-82.939999 28.71,82.939999 15.95,-82.939999 m 17.545,0 v 82.939999 m 20.735,-82.939999 v 82.939999 m 47.85,-82.939999 -41.47,41.469999 41.47,41.47 m 17.545,-82.939999 v 82.939999" class="wiki" style="fill:none;stroke:#f70;stroke-width:9.56999969px;stroke-linecap:round;stroke-linejoin:round"/></svg>